  0
SECTION
  2
HEADER
  9
$MEASUREMENT
  70
  1
  9
$INSUNITS
  70
  4
  0
ENDSEC
  0
SECTION
  2
TABLES
  0
TABLE
  2
LTYPE
 70
     1
  0
LTYPE
  2
CONTINUOUS
 70
    64
  3
Ausgezogene Linie
 72
    65
 73
     0
 40
0.0
  0
ENDTAB
  0
TABLE
  2
LAYER
 70
     3
  0
LAYER
  2
Contour
 70
    64
 62
     7
  6
CONTINUOUS
  0
LAYER
  2
Engraving
 70
    64
 62
     7
  6
CONTINUOUS
  0
LAYER
  2
Reference_points
 70
    64
 62
     1
  6
CONTINUOUS
  0
ENDTAB
  0
TABLE
  2
STYLE
 70
     1
  0
STYLE
  2
TXT
 70
    64
 40
0.0
 41
1.0
 50
0.0
 71
     0
 42
3.500000
  3
TXT
  0
ENDTAB
  0
ENDSEC
  0
SECTION
  2
BLOCKS
  0
ENDSEC
  0
SECTION
  2
ENTITIES
  0
LINE
  8
Contour
 62
   7
 39
0.100
  6
CONTINUOUS
 10
110.00000
 20
170.00000
 30
 0
 11
110.00000
 21
0.00000
  0
LINE
  8
Contour
 62
   7
 39
0.100
  6
CONTINUOUS
 10
110.00000
 20
0.00000
 30
 0
 11
0.00000
 21
0.00000
  0
LINE
  8
Contour
 62
   7
 39
0.100
  6
CONTINUOUS
 10
0.00000
 20
0.00000
 30
 0
 11
0.00000
 21
170.00000
  0
LINE
  8
Contour
 62
   7
 39
0.100
  6
CONTINUOUS
 10
0.00000
 20
170.00000
 30
 0
 11
110.00000
 21
170.00000
  0
ARC
  8
Contour
 62
   7
 39
0.100
  6
CONTINUOUS
 10
0.35355
 20
0.35355
 30
 0
 40
0.50000
 50
135.00000
 51
315.00000
  0
LINE
  8
Contour
 62
   7
 39
0.100
  6
CONTINUOUS
 10
0.70711
 20
0.00000
 30
 0
 11
19.29289
 21
0.00000
  0
ARC
  8
Contour
 62
   7
 39
0.100
  6
CONTINUOUS
 10
19.64645
 20
0.35355
 30
 0
 40
0.50000
 50
225.00000
 51
405.00000
  0
LINE
  8
Contour
 62
   7
 39
0.100
  6
CONTINUOUS
 10
20.00000
 20
0.70711
 30
 0
 11
20.00000
 21
11.79289
  0
ARC
  8
Contour
 62
   7
 39
0.100
  6
CONTINUOUS
 10
19.64645
 20
12.14645
 30
 0
 40
0.50000
 50
315.00000
 51
495.00000
  0
LINE
  8
Contour
 62
   7
 39
0.100
  6
CONTINUOUS
 10
19.29289
 20
12.50000
 30
 0
 11
0.70711
 21
12.50000
  0
ARC
  8
Contour
 62
   7
 39
0.100
  6
CONTINUOUS
 10
0.35355
 20
12.14645
 30
 0
 40
0.50000
 50
45.00000
 51
225.00000
  0
LINE
  8
Contour
 62
   7
 39
0.100
  6
CONTINUOUS
 10
0.00000
 20
11.79289
 30
 0
 11
0.00000
 21
0.70711
  0
ARC
  8
Contour
 62
   7
 39
0.100
  6
CONTINUOUS
 10
90.35155
 20
0.35355
 30
 0
 40
0.50000
 50
135.00000
 51
315.00000
  0
LINE
  8
Contour
 62
   7
 39
0.100
  6
CONTINUOUS
 10
90.70511
 20
0.00000
 30
 0
 11
109.29089
 21
0.00000
  0
ARC
  8
Contour
 62
   7
 39
0.100
  6
CONTINUOUS
 10
109.64445
 20
0.35355
 30
 0
 40
0.50000
 50
225.00000
 51
405.00000
  0
LINE
  8
Contour
 62
   7
 39
0.100
  6
CONTINUOUS
 10
109.99800
 20
0.70711
 30
 0
 11
109.99800
 21
11.79289
  0
ARC
  8
Contour
 62
   7
 39
0.100
  6
CONTINUOUS
 10
109.64445
 20
12.14645
 30
 0
 40
0.50000
 50
315.00000
 51
495.00000
  0
LINE
  8
Contour
 62
   7
 39
0.100
  6
CONTINUOUS
 10
109.29089
 20
12.50000
 30
 0
 11
90.70511
 21
12.50000
  0
ARC
  8
Contour
 62
   7
 39
0.100
  6
CONTINUOUS
 10
90.35155
 20
12.14645
 30
 0
 40
0.50000
 50
45.00000
 51
225.00000
  0
LINE
  8
Contour
 62
   7
 39
0.100
  6
CONTINUOUS
 10
89.99800
 20
11.79289
 30
 0
 11
89.99800
 21
0.70711
  0
ARC
  8
Contour
 62
   7
 39
0.100
  6
CONTINUOUS
 10
0.35555
 20
157.85355
 30
 0
 40
0.50000
 50
135.00000
 51
315.00000
  0
LINE
  8
Contour
 62
   7
 39
0.100
  6
CONTINUOUS
 10
0.70911
 20
157.50000
 30
 0
 11
19.29489
 21
157.50000
  0
ARC
  8
Contour
 62
   7
 39
0.100
  6
CONTINUOUS
 10
19.64845
 20
157.85355
 30
 0
 40
0.50000
 50
225.00000
 51
405.00000
  0
LINE
  8
Contour
 62
   7
 39
0.100
  6
CONTINUOUS
 10
20.00200
 20
158.20711
 30
 0
 11
20.00200
 21
169.29289
  0
ARC
  8
Contour
 62
   7
 39
0.100
  6
CONTINUOUS
 10
19.64845
 20
169.64645
 30
 0
 40
0.50000
 50
315.00000
 51
495.00000
  0
LINE
  8
Contour
 62
   7
 39
0.100
  6
CONTINUOUS
 10
19.29489
 20
170.00000
 30
 0
 11
0.70911
 21
170.00000
  0
ARC
  8
Contour
 62
   7
 39
0.100
  6
CONTINUOUS
 10
0.35555
 20
169.64645
 30
 0
 40
0.50000
 50
45.00000
 51
225.00000
  0
LINE
  8
Contour
 62
   7
 39
0.100
  6
CONTINUOUS
 10
0.00200
 20
169.29289
 30
 0
 11
0.00200
 21
158.20711
  0
ARC
  8
Contour
 62
   7
 39
0.100
  6
CONTINUOUS
 10
90.35355
 20
157.85355
 30
 0
 40
0.50000
 50
135.00000
 51
315.00000
  0
LINE
  8
Contour
 62
   7
 39
0.100
  6
CONTINUOUS
 10
90.70711
 20
157.50000
 30
 0
 11
109.29289
 21
157.50000
  0
ARC
  8
Contour
 62
   7
 39
0.100
  6
CONTINUOUS
 10
109.64645
 20
157.85355
 30
 0
 40
0.50000
 50
225.00000
 51
405.00000
  0
LINE
  8
Contour
 62
   7
 39
0.100
  6
CONTINUOUS
 10
110.00000
 20
158.20711
 30
 0
 11
110.00000
 21
169.29289
  0
ARC
  8
Contour
 62
   7
 39
0.100
  6
CONTINUOUS
 10
109.64645
 20
169.64645
 30
 0
 40
0.50000
 50
315.00000
 51
495.00000
  0
LINE
  8
Contour
 62
   7
 39
0.100
  6
CONTINUOUS
 10
109.29289
 20
170.00000
 30
 0
 11
90.70711
 21
170.00000
  0
ARC
  8
Contour
 62
   7
 39
0.100
  6
CONTINUOUS
 10
90.35355
 20
169.64645
 30
 0
 40
0.50000
 50
45.00000
 51
225.00000
  0
LINE
  8
Contour
 62
   7
 39
0.100
  6
CONTINUOUS
 10
90.00000
 20
169.29289
 30
 0
 11
90.00000
 21
158.20711
  0
ARC
  8
Contour
 62
   7
 39
0.100
  6
CONTINUOUS
 10
35.35355
 20
0.35355
 30
 0
 40
0.50000
 50
135.00000
 51
315.00000
  0
LINE
  8
Contour
 62
   7
 39
0.100
  6
CONTINUOUS
 10
35.70711
 20
0.00000
 30
 0
 11
74.29289
 21
0.00000
  0
ARC
  8
Contour
 62
   7
 39
0.100
  6
CONTINUOUS
 10
74.64645
 20
0.35355
 30
 0
 40
0.50000
 50
225.00000
 51
405.00000
  0
LINE
  8
Contour
 62
   7
 39
0.100
  6
CONTINUOUS
 10
75.00000
 20
0.70711
 30
 0
 11
75.00000
 21
11.79289
  0
ARC
  8
Contour
 62
   7
 39
0.100
  6
CONTINUOUS
 10
74.64645
 20
12.14645
 30
 0
 40
0.50000
 50
315.00000
 51
495.00000
  0
LINE
  8
Contour
 62
   7
 39
0.100
  6
CONTINUOUS
 10
74.29289
 20
12.50000
 30
 0
 11
35.70711
 21
12.50000
  0
ARC
  8
Contour
 62
   7
 39
0.100
  6
CONTINUOUS
 10
35.35355
 20
12.14645
 30
 0
 40
0.50000
 50
45.00000
 51
225.00000
  0
LINE
  8
Contour
 62
   7
 39
0.100
  6
CONTINUOUS
 10
35.00000
 20
11.79289
 30
 0
 11
35.00000
 21
0.70711
  0
CIRCLE
  8
Contour
 62
   7
 39
0.100
  6
CONTINUOUS
 10
82.95000
 20
6.05000
 30
 0
 40
2.25000
  0
CIRCLE
  8
Contour
 62
   7
 39
0.100
  6
CONTINUOUS
 10
27.05000
 20
6.05000
 30
 0
 40
2.25000
  0
CIRCLE
  8
Contour
 62
   7
 39
0.100
  6
CONTINUOUS
 10
82.95000
 20
163.95000
 30
 0
 40
2.25000
  0
CIRCLE
  8
Contour
 62
   7
 39
0.100
  6
CONTINUOUS
 10
27.05000
 20
163.95000
 30
 0
 40
2.25000
  0
CIRCLE
  8
Contour
 62
   7
 39
0.100
  6
CONTINUOUS
 10
12.50000
 20
19.00000
 30
 0
 40
1.75000
  0
CIRCLE
  8
Contour
 62
   7
 39
0.100
  6
CONTINUOUS
 10
97.50000
 20
19.00000
 30
 0
 40
1.75000
  0
CIRCLE
  8
Contour
 62
   7
 39
0.100
  6
CONTINUOUS
 10
97.50000
 20
75.00000
 30
 0
 40
1.75000
  0
CIRCLE
  8
Contour
 62
   7
 39
0.100
  6
CONTINUOUS
 10
12.50000
 20
75.00000
 30
 0
 40
1.75000
  0
CIRCLE
  8
Contour
 62
   7
 39
0.100
  6
CONTINUOUS
 10
50.50000
 20
147.00000
 30
 0
 40
1.75000
  0
CIRCLE
  8
Contour
 62
   7
 39
0.100
  6
CONTINUOUS
 10
92.50000
 20
147.00000
 30
 0
 40
1.75000
  0
CIRCLE
  8
Contour
 62
   7
 39
0.100
  6
CONTINUOUS
 10
50.50000
 20
107.00000
 30
 0
 40
1.75000
  0
CIRCLE
  8
Contour
 62
   7
 39
0.100
  6
CONTINUOUS
 10
92.50000
 20
107.00000
 30
 0
 40
1.75000
  0
LINE
  8
Reference_points
 62
   1
 39
0.100
  6
CONTINUOUS
 10
-1.70000
 20
0.00000
 30
 0
 11
1.70000
 21
0.00000
  0
LINE
  8
Reference_points
 62
   1
 39
0.100
  6
CONTINUOUS
 10
0.00000
 20
-1.70000
 30
 0
 11
0.00000
 21
1.70000
  0
LINE
  8
Reference_points
 62
   1
 39
0.100
  6
CONTINUOUS
 10
8.30000
 20
6.25000
 30
 0
 11
11.70000
 21
6.25000
  0
LINE
  8
Reference_points
 62
   1
 39
0.100
  6
CONTINUOUS
 10
10.00000
 20
4.55000
 30
 0
 11
10.00000
 21
7.95000
  0
LINE
  8
Reference_points
 62
   1
 39
0.100
  6
CONTINUOUS
 10
98.29800
 20
6.25000
 30
 0
 11
101.69800
 21
6.25000
  0
LINE
  8
Reference_points
 62
   1
 39
0.100
  6
CONTINUOUS
 10
99.99800
 20
4.55000
 30
 0
 11
99.99800
 21
7.95000
  0
LINE
  8
Reference_points
 62
   1
 39
0.100
  6
CONTINUOUS
 10
8.30200
 20
163.75000
 30
 0
 11
11.70200
 21
163.75000
  0
LINE
  8
Reference_points
 62
   1
 39
0.100
  6
CONTINUOUS
 10
10.00200
 20
162.05000
 30
 0
 11
10.00200
 21
165.45000
  0
LINE
  8
Reference_points
 62
   1
 39
0.100
  6
CONTINUOUS
 10
98.30000
 20
163.75000
 30
 0
 11
101.70000
 21
163.75000
  0
LINE
  8
Reference_points
 62
   1
 39
0.100
  6
CONTINUOUS
 10
100.00000
 20
162.05000
 30
 0
 11
100.00000
 21
165.45000
  0
LINE
  8
Reference_points
 62
   1
 39
0.100
  6
CONTINUOUS
 10
53.30000
 20
6.25000
 30
 0
 11
56.70000
 21
6.25000
  0
LINE
  8
Reference_points
 62
   1
 39
0.100
  6
CONTINUOUS
 10
55.00000
 20
4.55000
 30
 0
 11
55.00000
 21
7.95000
  0
LINE
  8
Reference_points
 62
   1
 39
0.100
  6
CONTINUOUS
 10
81.25000
 20
6.05000
 30
 0
 11
84.65000
 21
6.05000
  0
LINE
  8
Reference_points
 62
   1
 39
0.100
  6
CONTINUOUS
 10
82.95000
 20
4.35000
 30
 0
 11
82.95000
 21
7.75000
  0
LINE
  8
Reference_points
 62
   1
 39
0.100
  6
CONTINUOUS
 10
25.35000
 20
6.05000
 30
 0
 11
28.75000
 21
6.05000
  0
LINE
  8
Reference_points
 62
   1
 39
0.100
  6
CONTINUOUS
 10
27.05000
 20
4.35000
 30
 0
 11
27.05000
 21
7.75000
  0
LINE
  8
Reference_points
 62
   1
 39
0.100
  6
CONTINUOUS
 10
81.25000
 20
163.95000
 30
 0
 11
84.65000
 21
163.95000
  0
LINE
  8
Reference_points
 62
   1
 39
0.100
  6
CONTINUOUS
 10
82.95000
 20
162.25000
 30
 0
 11
82.95000
 21
165.65000
  0
LINE
  8
Reference_points
 62
   1
 39
0.100
  6
CONTINUOUS
 10
25.35000
 20
163.95000
 30
 0
 11
28.75000
 21
163.95000
  0
LINE
  8
Reference_points
 62
   1
 39
0.100
  6
CONTINUOUS
 10
27.05000
 20
162.25000
 30
 0
 11
27.05000
 21
165.65000
  0
LINE
  8
Reference_points
 62
   1
 39
0.100
  6
CONTINUOUS
 10
10.80000
 20
19.00000
 30
 0
 11
14.20000
 21
19.00000
  0
LINE
  8
Reference_points
 62
   1
 39
0.100
  6
CONTINUOUS
 10
12.50000
 20
17.30000
 30
 0
 11
12.50000
 21
20.70000
  0
LINE
  8
Reference_points
 62
   1
 39
0.100
  6
CONTINUOUS
 10
95.80000
 20
19.00000
 30
 0
 11
99.20000
 21
19.00000
  0
LINE
  8
Reference_points
 62
   1
 39
0.100
  6
CONTINUOUS
 10
97.50000
 20
17.30000
 30
 0
 11
97.50000
 21
20.70000
  0
LINE
  8
Reference_points
 62
   1
 39
0.100
  6
CONTINUOUS
 10
95.80000
 20
75.00000
 30
 0
 11
99.20000
 21
75.00000
  0
LINE
  8
Reference_points
 62
   1
 39
0.100
  6
CONTINUOUS
 10
97.50000
 20
73.30000
 30
 0
 11
97.50000
 21
76.70000
  0
LINE
  8
Reference_points
 62
   1
 39
0.100
  6
CONTINUOUS
 10
10.80000
 20
75.00000
 30
 0
 11
14.20000
 21
75.00000
  0
LINE
  8
Reference_points
 62
   1
 39
0.100
  6
CONTINUOUS
 10
12.50000
 20
73.30000
 30
 0
 11
12.50000
 21
76.70000
  0
LINE
  8
Reference_points
 62
   1
 39
0.100
  6
CONTINUOUS
 10
48.80000
 20
147.00000
 30
 0
 11
52.20000
 21
147.00000
  0
LINE
  8
Reference_points
 62
   1
 39
0.100
  6
CONTINUOUS
 10
50.50000
 20
145.30000
 30
 0
 11
50.50000
 21
148.70000
  0
LINE
  8
Reference_points
 62
   1
 39
0.100
  6
CONTINUOUS
 10
90.80000
 20
147.00000
 30
 0
 11
94.20000
 21
147.00000
  0
LINE
  8
Reference_points
 62
   1
 39
0.100
  6
CONTINUOUS
 10
92.50000
 20
145.30000
 30
 0
 11
92.50000
 21
148.70000
  0
LINE
  8
Reference_points
 62
   1
 39
0.100
  6
CONTINUOUS
 10
48.80000
 20
107.00000
 30
 0
 11
52.20000
 21
107.00000
  0
LINE
  8
Reference_points
 62
   1
 39
0.100
  6
CONTINUOUS
 10
50.50000
 20
105.30000
 30
 0
 11
50.50000
 21
108.70000
  0
LINE
  8
Reference_points
 62
   1
 39
0.100
  6
CONTINUOUS
 10
90.80000
 20
107.00000
 30
 0
 11
94.20000
 21
107.00000
  0
LINE
  8
Reference_points
 62
   1
 39
0.100
  6
CONTINUOUS
 10
92.50000
 20
105.30000
 30
 0
 11
92.50000
 21
108.70000
  0
ENDSEC
  0
EOF
